<svg width="373" height="26" viewBox="0 0 373 26" fill="none" xmlns="http://www.w3.org/2000/svg">
<path d="M8.432 19.168C6.88 19.168 5.464 18.808 4.184 18.088C2.904 17.352 1.888 16.336 1.136 15.04C0.4 13.728 0.032 12.256 0.032 10.624C0.032 8.992 0.4 7.528 1.136 6.232C1.888 4.92 2.904 3.904 4.184 3.184C5.464 2.448 6.88 2.08 8.432 2.08C10 2.08 11.424 2.448 12.704 3.184C13.984 3.904 14.992 4.912 15.728 6.208C16.464 7.504 16.832 8.976 16.832 10.624C16.832 12.272 16.464 13.744 15.728 15.04C14.992 16.336 13.984 17.352 12.704 18.088C11.424 18.808 10 19.168 8.432 19.168ZM8.432 17.272C9.6 17.272 10.648 17 11.576 16.456C12.52 15.912 13.256 15.136 13.784 14.128C14.328 13.12 14.6 11.952 14.6 10.624C14.6 9.28 14.328 8.112 13.784 7.12C13.256 6.112 12.528 5.336 11.6 4.792C10.672 4.248 9.616 3.976 8.432 3.976C7.248 3.976 6.192 4.248 5.264 4.792C4.336 5.336 3.6 6.112 3.056 7.12C2.528 8.112 2.264 9.28 2.264 10.624C2.264 11.952 2.528 13.12 3.056 14.128C3.6 15.136 4.336 15.912 5.264 16.456C6.208 17 7.264 17.272 8.432 17.272ZM26.1232 5.608C27.7232 5.608 29.0192 6.096 30.0112 7.072C31.0032 8.032 31.4992 9.424 31.4992 11.248V19H29.3392V11.56C29.3392 10.248 29.0112 9.248 28.3552 8.56C27.6992 7.856 26.8032 7.504 25.6672 7.504C24.5152 7.504 23.5952 7.864 22.9072 8.584C22.2352 9.304 21.8992 10.352 21.8992 11.728V19H19.7152V5.848H21.8992V7.72C22.3312 7.048 22.9152 6.528 23.6512 6.16C24.4032 5.792 25.2272 5.608 26.1232 5.608ZM47.0668 11.92C47.0668 12.336 47.0428 12.776 46.9948 13.24H36.4828C36.5628 14.536 37.0028 15.552 37.8028 16.288C38.6188 17.008 39.6028 17.368 40.7548 17.368C41.6988 17.368 42.4828 17.152 43.1068 16.72C43.7468 16.272 44.1948 15.68 44.4508 14.944H46.8028C46.4508 16.208 45.7468 17.24 44.6908 18.04C43.6348 18.824 42.3228 19.216 40.7548 19.216C39.5068 19.216 38.3868 18.936 37.3948 18.376C36.4188 17.816 35.6508 17.024 35.0908 16C34.5308 14.96 34.2508 13.76 34.2508 12.4C34.2508 11.04 34.5228 9.848 35.0668 8.824C35.6108 7.8 36.3708 7.016 37.3468 6.472C38.3388 5.912 39.4748 5.632 40.7548 5.632C42.0028 5.632 43.1068 5.904 44.0668 6.448C45.0268 6.992 45.7628 7.744 46.2748 8.704C46.8028 9.648 47.0668 10.72 47.0668 11.92ZM44.8108 11.464C44.8108 10.632 44.6268 9.92 44.2588 9.328C43.8908 8.72 43.3868 8.264 42.7468 7.96C42.1228 7.64 41.4268 7.48 40.6588 7.48C39.5548 7.48 38.6108 7.832 37.8268 8.536C37.0588 9.24 36.6188 10.216 36.5068 11.464H44.8108ZM58.532 8.272C58.964 7.52 59.604 6.896 60.452 6.4C61.316 5.888 62.316 5.632 63.452 5.632C64.62 5.632 65.676 5.912 66.62 6.472C67.58 7.032 68.332 7.824 68.876 8.848C69.42 9.856 69.692 11.032 69.692 12.376C69.692 13.704 69.42 14.888 68.876 15.928C68.332 16.968 67.58 17.776 66.62 18.352C65.676 18.928 64.62 19.216 63.452 19.216C62.332 19.216 61.34 18.968 60.476 18.472C59.628 17.96 58.98 17.328 58.532 16.576V25.24H56.348V5.848H58.532V8.272ZM67.46 12.376C67.46 11.384 67.26 10.52 66.86 9.784C66.46 9.048 65.916 8.488 65.228 8.104C64.556 7.72 63.812 7.528 62.996 7.528C62.196 7.528 61.452 7.728 60.764 8.128C60.092 8.512 59.548 9.08 59.132 9.832C58.732 10.568 58.532 11.424 58.532 12.4C58.532 13.392 58.732 14.264 59.132 15.016C59.548 15.752 60.092 16.32 60.764 16.72C61.452 17.104 62.196 17.296 62.996 17.296C63.812 17.296 64.556 17.104 65.228 16.72C65.916 16.32 66.46 15.752 66.86 15.016C67.26 14.264 67.46 13.384 67.46 12.376ZM74.7508 1.24V19H72.5668V1.24H74.7508ZM77.657 12.376C77.657 11.032 77.929 9.856 78.473 8.848C79.017 7.824 79.761 7.032 80.705 6.472C81.665 5.912 82.729 5.632 83.897 5.632C85.049 5.632 86.049 5.88 86.897 6.376C87.745 6.872 88.377 7.496 88.793 8.248V5.848H91.001V19H88.793V16.552C88.361 17.32 87.713 17.96 86.849 18.472C86.001 18.968 85.009 19.216 83.873 19.216C82.705 19.216 81.649 18.928 80.705 18.352C79.761 17.776 79.017 16.968 78.473 15.928C77.929 14.888 77.657 13.704 77.657 12.376ZM88.793 12.4C88.793 11.408 88.593 10.544 88.193 9.808C87.793 9.072 87.249 8.512 86.561 8.128C85.889 7.728 85.145 7.528 84.329 7.528C83.513 7.528 82.769 7.72 82.097 8.104C81.425 8.488 80.889 9.048 80.489 9.784C80.089 10.52 79.889 11.384 79.889 12.376C79.889 13.384 80.089 14.264 80.489 15.016C80.889 15.752 81.425 16.32 82.097 16.72C82.769 17.104 83.513 17.296 84.329 17.296C85.145 17.296 85.889 17.104 86.561 16.72C87.249 16.32 87.793 15.752 88.193 15.016C88.593 14.264 88.793 13.392 88.793 12.4ZM97.3558 7.648V15.4C97.3558 16.04 97.4918 16.496 97.7638 16.768C98.0358 17.024 98.5078 17.152 99.1797 17.152H100.788V19H98.8198C97.6038 19 96.6918 18.72 96.0838 18.16C95.4758 17.6 95.1718 16.68 95.1718 15.4V7.648H93.4678V5.848H95.1718V2.536H97.3558V5.848H100.788V7.648H97.3558ZM108.786 7.648H106.026V19H103.842V7.648H102.138V5.848H103.842V4.912C103.842 3.44 104.218 2.368 104.97 1.696C105.738 1.008 106.962 0.663999 108.642 0.663999V2.488C107.682 2.488 107.002 2.68 106.602 3.064C106.218 3.432 106.026 4.048 106.026 4.912V5.848H108.786V7.648ZM117.068 19.216C115.836 19.216 114.716 18.936 113.708 18.376C112.716 17.816 111.932 17.024 111.356 16C110.796 14.96 110.516 13.76 110.516 12.4C110.516 11.056 110.804 9.872 111.38 8.848C111.972 7.808 112.772 7.016 113.78 6.472C114.788 5.912 115.916 5.632 117.164 5.632C118.412 5.632 119.54 5.912 120.548 6.472C121.556 7.016 122.348 7.8 122.924 8.824C123.516 9.848 123.812 11.04 123.812 12.4C123.812 13.76 123.508 14.96 122.9 16C122.308 17.024 121.5 17.816 120.476 18.376C119.452 18.936 118.316 19.216 117.068 19.216ZM117.068 17.296C117.852 17.296 118.588 17.112 119.276 16.744C119.964 16.376 120.516 15.824 120.932 15.088C121.364 14.352 121.58 13.456 121.58 12.4C121.58 11.344 121.372 10.448 120.956 9.712C120.54 8.976 119.996 8.432 119.324 8.08C118.652 7.712 117.924 7.528 117.14 7.528C116.34 7.528 115.604 7.712 114.932 8.08C114.276 8.432 113.748 8.976 113.348 9.712C112.948 10.448 112.748 11.344 112.748 12.4C112.748 13.472 112.94 14.376 113.324 15.112C113.724 15.848 114.252 16.4 114.908 16.768C115.564 17.12 116.284 17.296 117.068 17.296ZM128.868 7.984C129.252 7.232 129.796 6.648 130.5 6.232C131.22 5.816 132.092 5.608 133.116 5.608V7.864H132.54C130.092 7.864 128.868 9.192 128.868 11.848V19H126.684V5.848H128.868V7.984ZM151.453 5.608C152.477 5.608 153.389 5.824 154.189 6.256C154.989 6.672 155.621 7.304 156.085 8.152C156.549 9 156.781 10.032 156.781 11.248V19H154.621V11.56C154.621 10.248 154.293 9.248 153.637 8.56C152.997 7.856 152.125 7.504 151.021 7.504C149.885 7.504 148.981 7.872 148.309 8.608C147.637 9.328 147.301 10.376 147.301 11.752V19H145.141V11.56C145.141 10.248 144.813 9.248 144.157 8.56C143.517 7.856 142.645 7.504 141.541 7.504C140.405 7.504 139.501 7.872 138.829 8.608C138.157 9.328 137.821 10.376 137.821 11.752V19H135.637V5.848H137.821V7.744C138.253 7.056 138.829 6.528 139.549 6.16C140.285 5.792 141.093 5.608 141.973 5.608C143.077 5.608 144.053 5.856 144.901 6.352C145.749 6.848 146.381 7.576 146.797 8.536C147.165 7.608 147.773 6.888 148.621 6.376C149.469 5.864 150.413 5.608 151.453 5.608ZM181.689 15.28H174.393L173.049 19H170.745L176.793 2.368H179.313L185.337 19H183.033L181.689 15.28ZM181.065 13.504L178.041 5.056L175.017 13.504H181.065ZM190.157 1.24V19H187.973V1.24H190.157ZM196.063 1.24V19H193.879V1.24H196.063ZM216.072 15.28H208.776L207.432 19H205.128L211.176 2.368H213.696L219.72 19H217.416L216.072 15.28ZM215.448 13.504L212.424 5.056L209.4 13.504H215.448ZM227.012 19.216C226.004 19.216 225.1 19.048 224.3 18.712C223.5 18.36 222.868 17.88 222.404 17.272C221.94 16.648 221.684 15.936 221.636 15.136H223.892C223.956 15.792 224.26 16.328 224.804 16.744C225.364 17.16 226.092 17.368 226.988 17.368C227.82 17.368 228.476 17.184 228.956 16.816C229.436 16.448 229.676 15.984 229.676 15.424C229.676 14.848 229.42 14.424 228.908 14.152C228.396 13.864 227.604 13.584 226.532 13.312C225.556 13.056 224.756 12.8 224.132 12.544C223.524 12.272 222.996 11.88 222.548 11.368C222.116 10.84 221.9 10.152 221.9 9.304C221.9 8.632 222.1 8.016 222.5 7.456C222.9 6.896 223.468 6.456 224.204 6.136C224.94 5.8 225.78 5.632 226.724 5.632C228.18 5.632 229.356 6 230.252 6.736C231.148 7.472 231.628 8.48 231.692 9.76H229.508C229.46 9.072 229.18 8.52 228.668 8.104C228.172 7.688 227.5 7.48 226.652 7.48C225.868 7.48 225.244 7.648 224.78 7.984C224.316 8.32 224.084 8.76 224.084 9.304C224.084 9.736 224.22 10.096 224.492 10.384C224.78 10.656 225.132 10.88 225.548 11.056C225.98 11.216 226.572 11.4 227.324 11.608C228.268 11.864 229.036 12.12 229.628 12.376C230.22 12.616 230.724 12.984 231.14 13.48C231.572 13.976 231.796 14.624 231.812 15.424C231.812 16.144 231.612 16.792 231.212 17.368C230.812 17.944 230.244 18.4 229.508 18.736C228.788 19.056 227.956 19.216 227.012 19.216ZM239.551 19.216C238.543 19.216 237.639 19.048 236.839 18.712C236.039 18.36 235.407 17.88 234.943 17.272C234.479 16.648 234.223 15.936 234.175 15.136H236.431C236.495 15.792 236.799 16.328 237.343 16.744C237.903 17.16 238.631 17.368 239.527 17.368C240.359 17.368 241.015 17.184 241.495 16.816C241.975 16.448 242.215 15.984 242.215 15.424C242.215 14.848 241.959 14.424 241.447 14.152C240.935 13.864 240.143 13.584 239.071 13.312C238.095 13.056 237.295 12.8 236.671 12.544C236.063 12.272 235.535 11.88 235.087 11.368C234.655 10.84 234.439 10.152 234.439 9.304C234.439 8.632 234.639 8.016 235.039 7.456C235.439 6.896 236.007 6.456 236.743 6.136C237.479 5.8 238.319 5.632 239.263 5.632C240.719 5.632 241.895 6 242.791 6.736C243.687 7.472 244.167 8.48 244.231 9.76H242.047C241.999 9.072 241.719 8.52 241.207 8.104C240.711 7.688 240.039 7.48 239.191 7.48C238.407 7.48 237.783 7.648 237.319 7.984C236.855 8.32 236.623 8.76 236.623 9.304C236.623 9.736 236.759 10.096 237.031 10.384C237.319 10.656 237.671 10.88 238.087 11.056C238.519 11.216 239.111 11.4 239.863 11.608C240.807 11.864 241.575 12.12 242.167 12.376C242.759 12.616 243.263 12.984 243.679 13.48C244.111 13.976 244.335 14.624 244.351 15.424C244.351 16.144 244.151 16.792 243.751 17.368C243.351 17.944 242.783 18.4 242.047 18.736C241.327 19.056 240.495 19.216 239.551 19.216ZM259.434 11.92C259.434 12.336 259.41 12.776 259.362 13.24H248.85C248.93 14.536 249.37 15.552 250.17 16.288C250.986 17.008 251.97 17.368 253.122 17.368C254.066 17.368 254.85 17.152 255.474 16.72C256.114 16.272 256.562 15.68 256.818 14.944H259.17C258.818 16.208 258.114 17.24 257.058 18.04C256.002 18.824 254.69 19.216 253.122 19.216C251.874 19.216 250.754 18.936 249.762 18.376C248.786 17.816 248.018 17.024 247.458 16C246.898 14.96 246.618 13.76 246.618 12.4C246.618 11.04 246.89 9.848 247.434 8.824C247.978 7.8 248.738 7.016 249.714 6.472C250.706 5.912 251.842 5.632 253.122 5.632C254.37 5.632 255.474 5.904 256.434 6.448C257.394 6.992 258.13 7.744 258.642 8.704C259.17 9.648 259.434 10.72 259.434 11.92ZM257.178 11.464C257.178 10.632 256.994 9.92 256.626 9.328C256.258 8.72 255.754 8.264 255.114 7.96C254.49 7.64 253.794 7.48 253.026 7.48C251.922 7.48 250.978 7.832 250.194 8.536C249.426 9.24 248.986 10.216 248.874 11.464H257.178ZM264.981 7.648V15.4C264.981 16.04 265.117 16.496 265.389 16.768C265.661 17.024 266.133 17.152 266.805 17.152H268.413V19H266.445C265.229 19 264.317 18.72 263.709 18.16C263.101 17.6 262.797 16.68 262.797 15.4V7.648H261.093V5.848H262.797V2.536H264.981V5.848H268.413V7.648H264.981ZM276.641 10.624C276.641 8.992 277.009 7.528 277.745 6.232C278.481 4.92 279.481 3.896 280.745 3.16C282.025 2.424 283.441 2.056 284.993 2.056C286.817 2.056 288.409 2.496 289.769 3.376C291.129 4.256 292.121 5.504 292.745 7.12H290.129C289.665 6.112 288.993 5.336 288.113 4.792C287.249 4.248 286.209 3.976 284.993 3.976C283.825 3.976 282.777 4.248 281.849 4.792C280.921 5.336 280.193 6.112 279.665 7.12C279.137 8.112 278.873 9.28 278.873 10.624C278.873 11.952 279.137 13.12 279.665 14.128C280.193 15.12 280.921 15.888 281.849 16.432C282.777 16.976 283.825 17.248 284.993 17.248C286.209 17.248 287.249 16.984 288.113 16.456C288.993 15.912 289.665 15.136 290.129 14.128H292.745C292.121 15.728 291.129 16.968 289.769 17.848C288.409 18.712 286.817 19.144 284.993 19.144C283.441 19.144 282.025 18.784 280.745 18.064C279.481 17.328 278.481 16.312 277.745 15.016C277.009 13.72 276.641 12.256 276.641 10.624ZM298.18 1.24V19H295.996V1.24H298.18ZM301.087 12.376C301.087 11.032 301.359 9.856 301.903 8.848C302.447 7.824 303.191 7.032 304.135 6.472C305.095 5.912 306.159 5.632 307.327 5.632C308.479 5.632 309.479 5.88 310.327 6.376C311.175 6.872 311.807 7.496 312.223 8.248V5.848H314.431V19H312.223V16.552C311.791 17.32 311.143 17.96 310.279 18.472C309.431 18.968 308.439 19.216 307.303 19.216C306.135 19.216 305.079 18.928 304.135 18.352C303.191 17.776 302.447 16.968 301.903 15.928C301.359 14.888 301.087 13.704 301.087 12.376ZM312.223 12.4C312.223 11.408 312.023 10.544 311.623 9.808C311.223 9.072 310.679 8.512 309.991 8.128C309.319 7.728 308.575 7.528 307.759 7.528C306.943 7.528 306.199 7.72 305.527 8.104C304.855 8.488 304.319 9.048 303.919 9.784C303.519 10.52 303.319 11.384 303.319 12.376C303.319 13.384 303.519 14.264 303.919 15.016C304.319 15.752 304.855 16.32 305.527 16.72C306.199 17.104 306.943 17.296 307.759 17.296C308.575 17.296 309.319 17.104 309.991 16.72C310.679 16.32 311.223 15.752 311.623 15.016C312.023 14.264 312.223 13.392 312.223 12.4ZM322.777 19.216C321.769 19.216 320.865 19.048 320.065 18.712C319.265 18.36 318.633 17.88 318.169 17.272C317.705 16.648 317.449 15.936 317.401 15.136H319.657C319.721 15.792 320.025 16.328 320.569 16.744C321.129 17.16 321.857 17.368 322.753 17.368C323.585 17.368 324.241 17.184 324.721 16.816C325.201 16.448 325.441 15.984 325.441 15.424C325.441 14.848 325.185 14.424 324.673 14.152C324.161 13.864 323.369 13.584 322.297 13.312C321.321 13.056 320.521 12.8 319.897 12.544C319.289 12.272 318.761 11.88 318.313 11.368C317.881 10.84 317.665 10.152 317.665 9.304C317.665 8.632 317.865 8.016 318.265 7.456C318.665 6.896 319.233 6.456 319.969 6.136C320.705 5.8 321.545 5.632 322.489 5.632C323.945 5.632 325.121 6 326.017 6.736C326.913 7.472 327.393 8.48 327.457 9.76H325.273C325.225 9.072 324.945 8.52 324.433 8.104C323.937 7.688 323.265 7.48 322.417 7.48C321.633 7.48 321.009 7.648 320.545 7.984C320.081 8.32 319.849 8.76 319.849 9.304C319.849 9.736 319.985 10.096 320.257 10.384C320.545 10.656 320.897 10.88 321.313 11.056C321.745 11.216 322.337 11.4 323.089 11.608C324.033 11.864 324.801 12.12 325.393 12.376C325.985 12.616 326.489 12.984 326.905 13.48C327.337 13.976 327.561 14.624 327.577 15.424C327.577 16.144 327.377 16.792 326.977 17.368C326.577 17.944 326.009 18.4 325.273 18.736C324.553 19.056 323.721 19.216 322.777 19.216ZM335.317 19.216C334.309 19.216 333.405 19.048 332.605 18.712C331.805 18.36 331.173 17.88 330.709 17.272C330.245 16.648 329.989 15.936 329.941 15.136H332.197C332.261 15.792 332.565 16.328 333.109 16.744C333.669 17.16 334.397 17.368 335.293 17.368C336.125 17.368 336.781 17.184 337.261 16.816C337.741 16.448 337.981 15.984 337.981 15.424C337.981 14.848 337.725 14.424 337.213 14.152C336.701 13.864 335.909 13.584 334.837 13.312C333.861 13.056 333.061 12.8 332.437 12.544C331.829 12.272 331.301 11.88 330.853 11.368C330.421 10.84 330.205 10.152 330.205 9.304C330.205 8.632 330.405 8.016 330.805 7.456C331.205 6.896 331.773 6.456 332.509 6.136C333.245 5.8 334.085 5.632 335.029 5.632C336.485 5.632 337.661 6 338.557 6.736C339.453 7.472 339.933 8.48 339.997 9.76H337.813C337.765 9.072 337.485 8.52 336.973 8.104C336.477 7.688 335.805 7.48 334.957 7.48C334.173 7.48 333.549 7.648 333.085 7.984C332.621 8.32 332.389 8.76 332.389 9.304C332.389 9.736 332.525 10.096 332.797 10.384C333.085 10.656 333.437 10.88 333.853 11.056C334.285 11.216 334.877 11.4 335.629 11.608C336.573 11.864 337.341 12.12 337.933 12.376C338.525 12.616 339.029 12.984 339.445 13.48C339.877 13.976 340.101 14.624 340.117 15.424C340.117 16.144 339.917 16.792 339.517 17.368C339.117 17.944 338.549 18.4 337.813 18.736C337.093 19.056 336.261 19.216 335.317 19.216ZM355.2 11.92C355.2 12.336 355.176 12.776 355.128 13.24H344.616C344.696 14.536 345.136 15.552 345.936 16.288C346.752 17.008 347.736 17.368 348.888 17.368C349.832 17.368 350.616 17.152 351.24 16.72C351.88 16.272 352.328 15.68 352.584 14.944H354.936C354.584 16.208 353.88 17.24 352.824 18.04C351.768 18.824 350.456 19.216 348.888 19.216C347.64 19.216 346.52 18.936 345.528 18.376C344.552 17.816 343.784 17.024 343.224 16C342.664 14.96 342.384 13.76 342.384 12.4C342.384 11.04 342.656 9.848 343.2 8.824C343.744 7.8 344.504 7.016 345.48 6.472C346.472 5.912 347.608 5.632 348.888 5.632C350.136 5.632 351.24 5.904 352.2 6.448C353.16 6.992 353.896 7.744 354.408 8.704C354.936 9.648 355.2 10.72 355.2 11.92ZM352.944 11.464C352.944 10.632 352.76 9.92 352.392 9.328C352.024 8.72 351.52 8.264 350.88 7.96C350.256 7.64 349.56 7.48 348.792 7.48C347.688 7.48 346.744 7.832 345.96 8.536C345.192 9.24 344.752 10.216 344.64 11.464H352.944ZM362.738 19.216C361.73 19.216 360.826 19.048 360.026 18.712C359.226 18.36 358.594 17.88 358.13 17.272C357.666 16.648 357.41 15.936 357.362 15.136H359.618C359.682 15.792 359.986 16.328 360.53 16.744C361.09 17.16 361.818 17.368 362.714 17.368C363.546 17.368 364.202 17.184 364.682 16.816C365.162 16.448 365.402 15.984 365.402 15.424C365.402 14.848 365.146 14.424 364.634 14.152C364.122 13.864 363.33 13.584 362.258 13.312C361.282 13.056 360.482 12.8 359.858 12.544C359.25 12.272 358.722 11.88 358.274 11.368C357.842 10.84 357.626 10.152 357.626 9.304C357.626 8.632 357.826 8.016 358.226 7.456C358.626 6.896 359.194 6.456 359.93 6.136C360.666 5.8 361.506 5.632 362.45 5.632C363.906 5.632 365.082 6 365.978 6.736C366.874 7.472 367.354 8.48 367.418 9.76H365.234C365.186 9.072 364.906 8.52 364.394 8.104C363.898 7.688 363.226 7.48 362.378 7.48C361.594 7.48 360.97 7.648 360.506 7.984C360.042 8.32 359.81 8.76 359.81 9.304C359.81 9.736 359.946 10.096 360.218 10.384C360.506 10.656 360.858 10.88 361.274 11.056C361.706 11.216 362.298 11.4 363.05 11.608C363.994 11.864 364.762 12.12 365.354 12.376C365.946 12.616 366.45 12.984 366.866 13.48C367.298 13.976 367.522 14.624 367.538 15.424C367.538 16.144 367.338 16.792 366.938 17.368C366.538 17.944 365.97 18.4 365.234 18.736C364.514 19.056 363.682 19.216 362.738 19.216Z" fill="white"/>
<path d="M161.06 19.144C160.644 19.144 160.292 19 160.004 18.712C159.716 18.424 159.572 18.072 159.572 17.656C159.572 17.24 159.716 16.888 160.004 16.6C160.292 16.312 160.644 16.168 161.06 16.168C161.46 16.168 161.796 16.312 162.068 16.6C162.356 16.888 162.5 17.24 162.5 17.656C162.5 18.072 162.356 18.424 162.068 18.712C161.796 19 161.46 19.144 161.06 19.144Z" fill="#DF0789"/>
<path d="M371.317 19.144C370.901 19.144 370.549 19 370.261 18.712C369.973 18.424 369.829 18.072 369.829 17.656C369.829 17.24 369.973 16.888 370.261 16.6C370.549 16.312 370.901 16.168 371.317 16.168C371.717 16.168 372.053 16.312 372.325 16.6C372.613 16.888 372.757 17.24 372.757 17.656C372.757 18.072 372.613 18.424 372.325 18.712C372.053 19 371.717 19.144 371.317 19.144Z" fill="#07ABDF"/>
</svg>
